<svg xmlns="http://www.w3.org/2000/svg" version="1.1" viewBox="0 0 72 934">
    <style type="text/css">
        .st0{fill:none;stroke:#1782D9;stroke-width:2;stroke-miterlimit:10;}
    </style>
    <defs>
        <symbol id="icon-1" viewBox="0 0 28 28">
            <g id="Group_213" transform="translate(-4 -3)">
                <path id="Path_1122" class="st0" d="M41.6,476.7H24.5c-0.3,0-0.6,0-0.9,0c-0.1,0-0.2,0-0.2-0.2c0-4.3,0-8.5,0-12.8   c0-0.2,0-0.5,0-0.7c0.3,0,0.6-0.1,0.9-0.1c0.2,0,0.5-0.1,0.7-0.1c0.3,0,0.6-0.1,0.9-0.1c0.4-0.1,0.7-0.1,1.1-0.2l1-0.1l1.8-0.3   c0.7-0.1,1.3-0.2,2-0.3c0.4-0.1,0.8-0.1,1.3-0.2c0.5-0.1,1-0.1,1.5-0.2c0.5-0.1,0.9-0.1,1.4-0.2c0.4-0.1,0.8-0.1,1.2-0.2   c0.3,0,0.7-0.1,1-0.2c0.3-0.1,0.6-0.1,1-0.1c0.2,0,0.4-0.1,0.6-0.1c0.4-0.1,0.9-0.1,1.3-0.2c0.2,0,0.4-0.1,0.6-0.1L41.6,476.7z"/>
                <path id="Path_1123" class="st0" d="M41.6,495.8c-0.4,0-0.7-0.1-1.1-0.1c-0.4-0.1-0.9-0.1-1.3-0.2c-0.4-0.1-0.7-0.1-1.1-0.2   c-0.3,0-0.6-0.1-0.9-0.1c-0.3,0-0.6-0.1-0.9-0.1c-0.4-0.1-0.7-0.1-1.1-0.2l-1.1-0.2c-0.3,0-0.6-0.1-1-0.1c-0.3,0-0.6-0.1-0.9-0.2   c-0.4-0.1-0.7-0.1-1.1-0.2c-0.4-0.1-0.7-0.1-1.1-0.2s-0.8-0.1-1.1-0.1c-0.6-0.1-1.1-0.2-1.7-0.3c-0.5-0.1-1.1-0.1-1.6-0.2   c-0.6-0.1-1.2-0.2-1.7-0.3c-0.1,0-0.2,0-0.2,0c-0.3,0-0.2-0.1-0.2-0.3c0-2.4,0-4.9,0-7.3c0-1.9,0-3.7,0-5.6c0,0,0,0,0-0.1h18.2   c0,0.2,0,0.4,0,0.7c0,5,0,10,0,15C41.6,495.6,41.6,495.6,41.6,495.8L41.6,495.8z"/>
                <path id="Path_1124" class="st0" d="M20.4,476.8h-3.2H6.6c-0.3,0-0.3,0-0.3-0.3c0-3.7,0-7.4,0-11.1c0-0.3,0-0.3,0.3-0.3   c0.4,0,0.7-0.1,1.1-0.2c0.3,0,0.6-0.1,0.9-0.1c0.4-0.1,0.7-0.1,1.1-0.2c0.4-0.1,0.8-0.1,1.1-0.2c0.4-0.1,0.9-0.1,1.3-0.2   c0.5-0.1,1-0.1,1.5-0.2c0.4-0.1,0.9-0.1,1.3-0.2c0.4-0.1,0.8-0.1,1.2-0.2c0.5-0.1,0.9-0.1,1.4-0.2c0.4-0.1,0.8-0.1,1.2-0.2   c0.3,0,0.6-0.1,0.9-0.1c0.3,0,0.5-0.1,0.8-0.1V476.8z"/>
                <path id="Path_1125" class="st0" d="M20.4,493c-0.3,0-0.5-0.1-0.8-0.1c-0.3,0-0.6-0.1-0.9-0.1c-0.5-0.1-0.9-0.1-1.4-0.2   c-0.4-0.1-0.9-0.1-1.3-0.2c-0.3,0-0.5-0.1-0.8-0.1c-0.4-0.1-0.7-0.1-1.1-0.2c-0.5-0.1-1-0.1-1.5-0.2c-0.3,0-0.6-0.1-0.9-0.1   c-0.3,0-0.5-0.1-0.8-0.1c-0.3,0-0.6-0.1-0.8-0.1c-0.4-0.1-0.8-0.1-1.1-0.2c-0.3,0-0.6-0.1-1-0.1c-0.5-0.1-0.9-0.1-1.4-0.2   c0,0,0,0-0.1,0c-0.3,0-0.3,0-0.3-0.4c0-3.5,0-7.1,0-10.6c0-0.1,0-0.1,0-0.2h14.2V493z"/>
            </g>
        </symbol>
        <symbol id="icon-2">
            <g  id="Group_191">
                <path id="Path_1110" class="st1" d="M21.3,35.2c-4.5,0-9.1,0-13.6,0c-0.6,0-1.3-0.2-1.9-0.4c-0.8-0.3-1.5-0.8-2-1.5   c-0.6-0.7-1.1-1.6-1.3-2.5c-0.1-0.6-0.2-1.1-0.1-1.7c0-6,0-12,0-18.1c0-1.2,0.5-2.4,1.3-3.4c0.7-0.9,1.7-1.6,2.8-1.9   C7,5.6,7.5,5.5,8,5.5c5.5,0,11.1,0,16.6,0c3.4,0,6.8,0,10.2,0c1.3,0,2.5,0.4,3.5,1.2c1,0.8,1.8,2,2,3.3c0.1,0.4,0.1,0.9,0.1,1.3   c0,6,0,12,0,18c0,1-0.2,1.9-0.6,2.8c-0.7,1.5-2.1,2.6-3.8,3c-0.5,0.1-1,0.2-1.5,0.2C30.1,35.2,25.7,35.2,21.3,35.2z"/>
                <path id="Path_1111" class="st1" d="M15.7,20.4c0-1.3,0-2.5,0-3.8c0-0.3,0.1-0.7,0.2-1c0.4-1.1,1.2-1.9,2.3-2.3   c1.2-0.4,2.6-0.2,3.6,0.6c1.1,0.8,2.3,1.6,3.5,2.4c0.6,0.4,1.2,0.8,1.7,1.3c0.6,0.5,0.9,1.2,1.1,1.9c0.1,0.7,0.1,1.4-0.1,2   c-0.3,0.8-0.8,1.5-1.5,2c-1.1,0.8-2.3,1.6-3.4,2.4c-0.6,0.4-1.1,0.8-1.7,1.2c-0.8,0.5-1.6,0.6-2.5,0.5c-0.7-0.1-1.4-0.5-2-1   c-0.6-0.5-1.1-1.3-1.2-2.1c0-0.2-0.1-0.5-0.1-0.7C15.7,22.7,15.7,21.5,15.7,20.4L15.7,20.4z"/>
                <line id="Line_110" class="st2" x1="2.3" y1="40" x2="40.6" y2="40"/>
            </g>
        </symbol>
        <symbol id="icon-3">
            <g  id="Group_193">
                <path id="Path_1112" class="st3" d="M2.6,232.7l0.5-1.1c0.6-0.9,1.5-1.5,2.5-1.7c0.3-0.1,0.6-0.1,0.9-0.1c4.3,0,8.6,0,12.9,0   c0.4,0,0.7,0.1,1,0.4c0.6,0.6,1.2,1.2,1.8,1.8c0.6,0.6,1.1,1.2,1.7,1.7c0.7,0.7,1.4,1.4,2.1,2.1l2.1,2.1c0.6,0.6,1.2,1.2,1.9,1.8   c0.3,0.3,0.5,0.7,0.5,1.1c0,4.8,0,9.6,0,14.3c0,0.2,0,0.4,0,0.6l0,2.6v0c0,0.3,0,0.5,0,0.8c0,1.4,0,2.8,0,4.2   c0,0.7-0.1,1.3-0.3,1.9c-0.3,0.8-0.8,1.5-1.5,1.9c-0.7,0.5-1.6,0.7-2.5,0.7c-6,0-12.1,0-18.1,0c-0.5,0-0.9,0-1.4,0   c-1.4,0-2.8-0.7-3.6-1.9c-0.5-0.7-0.7-1.5-0.7-2.3c0-9.8,0-19.6,0-29.5c0-0.1,0-0.2,0-0.4c0,0,0,0,0,0L2.6,232.7z"/>
                <path id="Path_1113" class="st3" d="M19.4,230.6c0,1.8,0,5.5,0,7.2c0,1.2,0.8,2.3,2,2.7l0.8,0.3c0.1,0,0.2,0,0.3,0   c2.4,0,4.9,0,7.3,0c0.1,0,0.2,0,0.3,0"/>
                <line id="Line_111" class="st4" x1="5.5" y1="248.2" x2="25.6" y2="248.2"/>
                <line id="Line_112" class="st4" x1="5.5" y1="255.1" x2="25.6" y2="255.1"/>
                <line id="Line_113" class="st4" x1="5.5" y1="262" x2="16.3" y2="262"/>
            </g>
        </symbol>
        <symbol id="icon-4">
            <g  id="Group_189" transform="translate(0 0)">
                <path id="Path_1109" class="st5" d="M39.3,346.3c-0.1,0.4-0.1,0.8-0.2,1.2c-0.1,0.4-0.1,0.8-0.2,1.2c0,0.4-0.1,0.7-0.2,1   c-0.1,0.4-0.1,0.9-0.2,1.3c-0.1,0.4-0.1,0.8-0.2,1.2c-0.1,0.4-0.1,0.9-0.2,1.3c-0.1,0.4-0.1,0.9-0.2,1.3c-0.1,0.6-0.2,1.1-0.3,1.7   c-0.1,0.4-0.1,0.8-0.2,1.2c-0.1,0.4-0.1,0.9-0.2,1.3c0,0.3-0.1,0.7-0.1,1c0,0.3-0.1,0.6-0.1,0.9l-0.1,1c0,0.3-0.1,0.6-0.1,0.9   c0,0.3-0.1,0.7-0.2,1c-0.1,0.5-0.2,1.1-0.3,1.6c0,0.3-0.1,0.6-0.1,0.9c-0.1,0.5-0.2,1-0.2,1.4c-0.1,0.4-0.1,0.8-0.2,1.2   c-0.1,0.4-0.1,0.9-0.2,1.3c0,0.3-0.1,0.7-0.1,1c-0.1,0.4-0.1,0.8-0.2,1.2c-0.1,0.4-0.1,0.8-0.2,1.3c-0.1,0.6-0.5,1-1.1,1   c-0.5,0-0.9-0.1-1.3-0.3c-0.9-0.3-1.8-0.6-2.7-0.9c-0.8-0.3-1.6-0.5-2.4-0.8c-0.7-0.2-1.4-0.5-2-0.7c-0.6-0.2-1.3-0.4-1.9-0.6   c-0.1,0-0.2,0-0.3,0.1c-0.4,0.5-0.8,1.1-1.2,1.6l-1.4,1.9c-0.5,0.7-1,1.4-1.6,2.1c-0.5,0.7-1,1.3-1.5,2c-0.3,0.3-0.7,0.5-1.1,0.4   c-0.5-0.1-0.9-0.5-0.9-1c0-0.4,0-0.7,0-1.1c0-2.7,0-5.5,0-8.2c0-0.5,0-0.5-0.5-0.6c-0.9-0.3-1.7-0.6-2.6-0.9   c-0.7-0.3-1.5-0.5-2.2-0.7c-1.1-0.4-2.2-0.8-3.3-1.1c-0.4-0.1-0.8-0.3-1.3-0.4c-0.7-0.3-1.5-0.5-2.2-0.8c-0.3-0.1-0.5-0.2-0.8-0.3   c-0.4-0.1-0.7-0.5-0.7-1c0-0.4,0.1-0.8,0.5-1c0.2-0.1,0.4-0.3,0.7-0.4c1-0.5,2-1.1,3.1-1.6c0.9-0.5,1.8-0.9,2.7-1.4   c1.2-0.6,2.4-1.3,3.6-1.9c1.2-0.6,2.3-1.2,3.5-1.8c1.2-0.6,2.3-1.2,3.5-1.8c1.1-0.6,2.1-1.1,3.2-1.6c1-0.5,2-1,2.9-1.5   c1.1-0.6,2.2-1.1,3.3-1.7c0.9-0.5,1.9-1,2.8-1.5c0.9-0.5,1.9-1,2.8-1.5c0.8-0.4,1.7-0.9,2.5-1.3c0.3-0.1,0.5-0.3,0.8-0.4   c0.6-0.1,1.2,0.3,1.3,0.8c0,0.1,0,0.2,0,0.2c0,0,0,0.1,0,0.1L39.3,346.3z"/>
                <line id="Line_109" class="st5" x1="15.8" y1="369" x2="39.3" y2="344.5"/>
            </g>
        </symbol>
    </defs>
</svg>