<svg xmlns="http://www.w3.org/2000/svg" version="1.1" width="72px" height="934px" viewBox="0 0 72 934">
    <defs>
        <symbol viewBox="0 0 135 50" id="idrive">
            <g id="Group_1">
                <path id="Path_1" class="cls0" fill="#FFFFFF" d="M131.5,21.3c-0.2-0.2-0.3-0.3-0.5-0.4c0.4,0,0.7-0.2,1-0.4c0.2-0.3,0.3-0.6,0.3-0.9   c0-0.3-0.1-0.5-0.2-0.8c-0.1-0.2-0.3-0.4-0.6-0.5c-0.4-0.1-0.7-0.1-1.1-0.1h-2.1v4.9h1V21h0.2c0.2,0,0.3,0,0.5,0.1   c0.1,0,0.2,0.1,0.3,0.2c0.2,0.2,0.4,0.5,0.5,0.7l0.7,1.1h1.2l-0.6-1C131.9,21.8,131.7,21.6,131.5,21.3 M130.3,20.2h-1V19h1.5   c0.3,0,0.5,0.3,0.5,0.6c0,0.1,0,0.3-0.1,0.4c-0.1,0.1-0.2,0.2-0.3,0.2C130.7,20.2,130.5,20.2,130.3,20.2"/>
                <path id="Path_2" class="cls0" fill="#FFFFFF" d="M133.6,17.2c-0.9-0.9-2.1-1.4-3.4-1.4c-2.6,0-4.8,2.1-4.8,4.8c0,2.6,2.1,4.8,4.8,4.8   c1.3,0,2.5-0.5,3.3-1.4c0.9-0.9,1.4-2.1,1.4-3.4C135,19.4,134.5,18.2,133.6,17.2 M132.9,23.3c-0.7,0.7-1.7,1.1-2.7,1.1   c-2.1,0-3.8-1.7-3.8-3.8c0-1,0.4-2,1.1-2.7c0.7-0.7,1.7-1.1,2.7-1.1c2.1,0,3.8,1.7,3.8,3.8C134,21.6,133.6,22.6,132.9,23.3"/>
                <path id="Path_3" class="cls0" fill="#FFFFFF" d="M1,14.6c-0.6,0.6-1,1.4-1,2.2v26.9h6.6V13.7H3.3C2.5,13.7,1.6,14,1,14.6"/>
                <path id="Path_4" class="cls0" fill="#FFFFFF" d="M21.7,13.7h-9.2c-0.9,0-1.7,0.3-2.4,0.9c-0.6,0.6-1,1.4-1,2.2v26.9h10.7c2.3,0.1,4.5-0.1,6.7-0.6   c1.6-0.4,3-1.1,4.3-2.1c1.7-1.3,3.1-3.1,3.9-5.1c0.9-2.3,1.3-4.8,1.3-7.3c0-5-1.2-8.8-3.6-11.4C30.2,14.9,26.6,13.7,21.7,13.7    M27.5,36c-1.4,1.5-3.6,2.3-6.7,2.3h-5.3V18.9h6.1c2.7,0,4.7,0.8,5.9,2.4c1.3,1.6,1.9,4,1.9,7.4C29.5,32.2,28.9,34.6,27.5,36"/>
                <path id="Path_5" class="cls0" fill="#FFFFFF" d="M50.4,20.5c-1.6,0-3.3,0.2-4.9,0.6c-1.5,0.4-2.9,1-4.1,1.9c-1.3,1-2.3,2.2-2.9,3.7   c-0.8,1.8-1.1,3.8-1.1,5.7v11.3H44v-12c-0.1-1.4,0.3-2.8,1.3-3.8c1.1-0.9,2.5-1.3,4-1.2h2.1v-6.2H50.4L50.4,20.5z"/>
                <path id="Path_6" class="cls0" fill="#FFFFFF" d="M56.7,20.5h-3.3v23.3h6.5V23.5c0-0.8-0.3-1.6-0.9-2.1C58.3,20.8,57.5,20.5,56.7,20.5"/>
                <path id="Path_7" class="cls0" fill="#FFFFFF" d="M79.9,20.5c-1.4-0.1-2.6,0.8-3,2.1l-4.3,14.2l-4.9-16.3h-6.8l8.6,23.3h6.6l8.7-23.3L79.9,20.5z"/>
                <path id="Path_8" class="cls0" fill="#FFFFFF" d="M56.3,12c-1.9,0.1-3.3,1.7-3.2,3.5s1.7,3.3,3.5,3.2c1.8-0.1,3.2-1.6,3.2-3.4   C59.8,13.5,58.2,12,56.3,12"/>
                <path id="Path_9" class="cls1" fill-rule="evenodd" clip-rule="evenodd" fill="#FFFFFF" d="M120.5,7.5c-1.9-3.5-5.2-6-9.1-7c-8-2.2-16.2,2.6-18.3,10.5c0,0,0,0.1,0,0.1   c-0.2,0.6-0.3,1.2-0.4,1.8c1.9-1,4.1-1.6,6.3-1.5c2-4.7,7.5-6.9,12.2-4.9c1.8,0.8,3.4,2.2,4.4,3.9c1,1.7,1.4,3.7,1.2,5.7   c1.9,1.1,3.5,2.7,4.6,4.6c0.2-0.6,0.5-1.2,0.7-1.9C123.1,15.1,122.6,10.9,120.5,7.5"/>
                <path id="Path_10" class="cls1" fill-rule="evenodd" clip-rule="evenodd" fill="#FFFFFF" d="M102.9,24.9c-1.2,0-2.4,0.4-3.3,1.2c-0.9,0.9-1.4,2.2-1.4,3.5h9.4c0-1.3-0.5-2.5-1.3-3.5   C105.4,25.3,104.2,24.8,102.9,24.9"/>
                <path id="Path_11" class="cls1" fill-rule="evenodd" clip-rule="evenodd" fill="#FFFFFF" d="M120.4,22.7c-0.1-0.2-0.2-0.4-0.3-0.6c-0.1-0.2-0.3-0.4-0.4-0.7c-0.9-1.3-2-2.5-3.4-3.3   c-0.9-0.5-1.8-0.9-2.7-1.1l-12.3-3.3c-0.9-0.2-1.9-0.4-2.8-0.4c-1.9,0-3.8,0.5-5.4,1.5c-0.2,0.1-0.3,0.2-0.5,0.3   c-2.3,1.4-3.9,3.7-4.6,6.2l-3.3,12.3c-1.5,5.8,1.9,11.7,7.6,13.2c0,0,0,0,0,0l12.4,3.3c5.8,1.5,11.6-1.9,13.2-7.6l3.3-12.3   C121.9,27.7,121.6,25,120.4,22.7 M114.3,32.6V33c0,0.2,0,0.4-0.1,0.6h-16c-0.1,1.5,0.4,2.9,1.4,4c0.9,1,2.3,1.5,3.6,1.4   c0.9,0,1.9-0.2,2.7-0.6c0.2-0.1,0.4-0.2,0.5-0.3l0.5-0.5c0.2-0.3,0.4-0.5,0.7-0.7c0.5-0.3,1.1-0.5,1.7-0.4h4.6   c-0.6,2.3-1.9,4.3-3.9,5.6c-2.1,1.4-4.7,2.1-7.2,2c-3.1,0.2-6.1-1-8.2-3.2c-2-2.1-3-5.1-3-9c0-3.7,1-6.6,2.9-8.7   c2.1-2.2,5.1-3.4,8.2-3.2c3.7,0,6.6,1,8.6,3.1c2,2.2,3,5.2,3,9L114.3,32.6z"/>
            </g>
        </symbol>
        <symbol id="windows">
            <g id="Group_213">
                <path id="Path_1122" class="st0" fill="none" stroke="#1782D9" stroke-width="2" stroke-miterlimit="10" d="M41.6,476.7H24.5c-0.3,0-0.6,0-0.9,0c-0.1,0-0.2,0-0.2-0.2c0-4.3,0-8.5,0-12.8   c0-0.2,0-0.5,0-0.7c0.3,0,0.6-0.1,0.9-0.1c0.2,0,0.5-0.1,0.7-0.1c0.3,0,0.6-0.1,0.9-0.1c0.4-0.1,0.7-0.1,1.1-0.2l1-0.1l1.8-0.3   c0.7-0.1,1.3-0.2,2-0.3c0.4-0.1,0.8-0.1,1.3-0.2c0.5-0.1,1-0.1,1.5-0.2c0.5-0.1,0.9-0.1,1.4-0.2c0.4-0.1,0.8-0.1,1.2-0.2   c0.3,0,0.7-0.1,1-0.2c0.3-0.1,0.6-0.1,1-0.1c0.2,0,0.4-0.1,0.6-0.1c0.4-0.1,0.9-0.1,1.3-0.2c0.2,0,0.4-0.1,0.6-0.1L41.6,476.7z"/>
                <path id="Path_1123" class="st0" fill="none" stroke="#1782D9" stroke-width="2" stroke-miterlimit="10" d="M41.6,495.8c-0.4,0-0.7-0.1-1.1-0.1c-0.4-0.1-0.9-0.1-1.3-0.2c-0.4-0.1-0.7-0.1-1.1-0.2   c-0.3,0-0.6-0.1-0.9-0.1c-0.3,0-0.6-0.1-0.9-0.1c-0.4-0.1-0.7-0.1-1.1-0.2l-1.1-0.2c-0.3,0-0.6-0.1-1-0.1c-0.3,0-0.6-0.1-0.9-0.2   c-0.4-0.1-0.7-0.1-1.1-0.2c-0.4-0.1-0.7-0.1-1.1-0.2s-0.8-0.1-1.1-0.1c-0.6-0.1-1.1-0.2-1.7-0.3c-0.5-0.1-1.1-0.1-1.6-0.2   c-0.6-0.1-1.2-0.2-1.7-0.3c-0.1,0-0.2,0-0.2,0c-0.3,0-0.2-0.1-0.2-0.3c0-2.4,0-4.9,0-7.3c0-1.9,0-3.7,0-5.6c0,0,0,0,0-0.1h18.2   c0,0.2,0,0.4,0,0.7c0,5,0,10,0,15C41.6,495.6,41.6,495.6,41.6,495.8L41.6,495.8z"/>
                <path id="Path_1124" class="st0" fill="none" stroke="#1782D9" stroke-width="2" stroke-miterlimit="10" d="M20.4,476.8h-3.2H6.6c-0.3,0-0.3,0-0.3-0.3c0-3.7,0-7.4,0-11.1c0-0.3,0-0.3,0.3-0.3   c0.4,0,0.7-0.1,1.1-0.2c0.3,0,0.6-0.1,0.9-0.1c0.4-0.1,0.7-0.1,1.1-0.2c0.4-0.1,0.8-0.1,1.1-0.2c0.4-0.1,0.9-0.1,1.3-0.2   c0.5-0.1,1-0.1,1.5-0.2c0.4-0.1,0.9-0.1,1.3-0.2c0.4-0.1,0.8-0.1,1.2-0.2c0.5-0.1,0.9-0.1,1.4-0.2c0.4-0.1,0.8-0.1,1.2-0.2   c0.3,0,0.6-0.1,0.9-0.1c0.3,0,0.5-0.1,0.8-0.1V476.8z"/>
                <path id="Path_1125" class="st0" fill="none" stroke="#1782D9" stroke-width="2" stroke-miterlimit="10" d="M20.4,493c-0.3,0-0.5-0.1-0.8-0.1c-0.3,0-0.6-0.1-0.9-0.1c-0.5-0.1-0.9-0.1-1.4-0.2   c-0.4-0.1-0.9-0.1-1.3-0.2c-0.3,0-0.5-0.1-0.8-0.1c-0.4-0.1-0.7-0.1-1.1-0.2c-0.5-0.1-1-0.1-1.5-0.2c-0.3,0-0.6-0.1-0.9-0.1   c-0.3,0-0.5-0.1-0.8-0.1c-0.3,0-0.6-0.1-0.8-0.1c-0.4-0.1-0.8-0.1-1.1-0.2c-0.3,0-0.6-0.1-1-0.1c-0.5-0.1-0.9-0.1-1.4-0.2   c0,0,0,0-0.1,0c-0.3,0-0.3,0-0.3-0.4c0-3.5,0-7.1,0-10.6c0-0.1,0-0.1,0-0.2h14.2V493z"/>
            </g>
        </symbol>
        <symbol id="videotut">
            <g id="Group_191">
                <path id="Path_1110" class="st1" fill="none" stroke="#DB895E" stroke-width="2" stroke-miterlimit="10" d="M21.3,35.2c-4.5,0-9.1,0-13.6,0c-0.6,0-1.3-0.2-1.9-0.4c-0.8-0.3-1.5-0.8-2-1.5   c-0.6-0.7-1.1-1.6-1.3-2.5c-0.1-0.6-0.2-1.1-0.1-1.7c0-6,0-12,0-18.1c0-1.2,0.5-2.4,1.3-3.4c0.7-0.9,1.7-1.6,2.8-1.9   C7,5.6,7.5,5.5,8,5.5c5.5,0,11.1,0,16.6,0c3.4,0,6.8,0,10.2,0c1.3,0,2.5,0.4,3.5,1.2c1,0.8,1.8,2,2,3.3c0.1,0.4,0.1,0.9,0.1,1.3   c0,6,0,12,0,18c0,1-0.2,1.9-0.6,2.8c-0.7,1.5-2.1,2.6-3.8,3c-0.5,0.1-1,0.2-1.5,0.2C30.1,35.2,25.7,35.2,21.3,35.2z"/>
                <path id="Path_1111" class="st1" fill="none" stroke="#DB895E" stroke-width="2" stroke-miterlimit="10" d="M15.7,20.4c0-1.3,0-2.5,0-3.8c0-0.3,0.1-0.7,0.2-1c0.4-1.1,1.2-1.9,2.3-2.3   c1.2-0.4,2.6-0.2,3.6,0.6c1.1,0.8,2.3,1.6,3.5,2.4c0.6,0.4,1.2,0.8,1.7,1.3c0.6,0.5,0.9,1.2,1.1,1.9c0.1,0.7,0.1,1.4-0.1,2   c-0.3,0.8-0.8,1.5-1.5,2c-1.1,0.8-2.3,1.6-3.4,2.4c-0.6,0.4-1.1,0.8-1.7,1.2c-0.8,0.5-1.6,0.6-2.5,0.5c-0.7-0.1-1.4-0.5-2-1   c-0.6-0.5-1.1-1.3-1.2-2.1c0-0.2-0.1-0.5-0.1-0.7C15.7,22.7,15.7,21.5,15.7,20.4L15.7,20.4z"/>
                <line id="Line_110" class="st2" fill="none" stroke="#DB895E" stroke-width="2" stroke-linecap="round" stroke-miterlimit="10" x1="2.3" y1="40" x2="40.6" y2="40"/>
            </g>
        </symbol>
        <g id="Group_193">
            <path id="Path_1112" class="st3" fill="none" stroke="#BF5EDB" stroke-width="2" stroke-miterlimit="10" d="M2.6,232.7l0.5-1.1c0.6-0.9,1.5-1.5,2.5-1.7c0.3-0.1,0.6-0.1,0.9-0.1c4.3,0,8.6,0,12.9,0   c0.4,0,0.7,0.1,1,0.4c0.6,0.6,1.2,1.2,1.8,1.8c0.6,0.6,1.1,1.2,1.7,1.7c0.7,0.7,1.4,1.4,2.1,2.1l2.1,2.1c0.6,0.6,1.2,1.2,1.9,1.8   c0.3,0.3,0.5,0.7,0.5,1.1c0,4.8,0,9.6,0,14.3c0,0.2,0,0.4,0,0.6l0,2.6v0c0,0.3,0,0.5,0,0.8c0,1.4,0,2.8,0,4.2   c0,0.7-0.1,1.3-0.3,1.9c-0.3,0.8-0.8,1.5-1.5,1.9c-0.7,0.5-1.6,0.7-2.5,0.7c-6,0-12.1,0-18.1,0c-0.5,0-0.9,0-1.4,0   c-1.4,0-2.8-0.7-3.6-1.9c-0.5-0.7-0.7-1.5-0.7-2.3c0-9.8,0-19.6,0-29.5c0-0.1,0-0.2,0-0.4c0,0,0,0,0,0L2.6,232.7z"/>
            <path id="Path_1113" class="st3" fill="none" stroke="#BF5EDB" stroke-width="2" stroke-miterlimit="10" d="M19.4,230.6c0,1.8,0,5.5,0,7.2c0,1.2,0.8,2.3,2,2.7l0.8,0.3c0.1,0,0.2,0,0.3,0   c2.4,0,4.9,0,7.3,0c0.1,0,0.2,0,0.3,0"/>
            <line id="Line_111" class="st4" fill="none" stroke="#BF5EDB" stroke-width="2" stroke-linecap="round" stroke-miterlimit="10" x1="5.5" y1="248.2" x2="25.6" y2="248.2"/>
            <line id="Line_112" class="st4" fill="none" stroke="#BF5EDB" stroke-width="2" stroke-linecap="round" stroke-miterlimit="10" x1="5.5" y1="255.1" x2="25.6" y2="255.1"/>
            <line id="Line_113" class="st4" fill="none" stroke="#BF5EDB" stroke-width="2" stroke-linecap="round" stroke-miterlimit="10" x1="5.5" y1="262" x2="16.3" y2="262"/>
        </g>
        <symbol id="safe-sender">
            <g id="Group_189" transform="translate(0 0)">
                <path id="Path_1109" class="st5" fill="none" stroke="#72DFC5" stroke-width="2" stroke-miterlimit="10" d="M39.3,346.3c-0.1,0.4-0.1,0.8-0.2,1.2c-0.1,0.4-0.1,0.8-0.2,1.2c0,0.4-0.1,0.7-0.2,1   c-0.1,0.4-0.1,0.9-0.2,1.3c-0.1,0.4-0.1,0.8-0.2,1.2c-0.1,0.4-0.1,0.9-0.2,1.3c-0.1,0.4-0.1,0.9-0.2,1.3c-0.1,0.6-0.2,1.1-0.3,1.7   c-0.1,0.4-0.1,0.8-0.2,1.2c-0.1,0.4-0.1,0.9-0.2,1.3c0,0.3-0.1,0.7-0.1,1c0,0.3-0.1,0.6-0.1,0.9l-0.1,1c0,0.3-0.1,0.6-0.1,0.9   c0,0.3-0.1,0.7-0.2,1c-0.1,0.5-0.2,1.1-0.3,1.6c0,0.3-0.1,0.6-0.1,0.9c-0.1,0.5-0.2,1-0.2,1.4c-0.1,0.4-0.1,0.8-0.2,1.2   c-0.1,0.4-0.1,0.9-0.2,1.3c0,0.3-0.1,0.7-0.1,1c-0.1,0.4-0.1,0.8-0.2,1.2c-0.1,0.4-0.1,0.8-0.2,1.3c-0.1,0.6-0.5,1-1.1,1   c-0.5,0-0.9-0.1-1.3-0.3c-0.9-0.3-1.8-0.6-2.7-0.9c-0.8-0.3-1.6-0.5-2.4-0.8c-0.7-0.2-1.4-0.5-2-0.7c-0.6-0.2-1.3-0.4-1.9-0.6   c-0.1,0-0.2,0-0.3,0.1c-0.4,0.5-0.8,1.1-1.2,1.6l-1.4,1.9c-0.5,0.7-1,1.4-1.6,2.1c-0.5,0.7-1,1.3-1.5,2c-0.3,0.3-0.7,0.5-1.1,0.4   c-0.5-0.1-0.9-0.5-0.9-1c0-0.4,0-0.7,0-1.1c0-2.7,0-5.5,0-8.2c0-0.5,0-0.5-0.5-0.6c-0.9-0.3-1.7-0.6-2.6-0.9   c-0.7-0.3-1.5-0.5-2.2-0.7c-1.1-0.4-2.2-0.8-3.3-1.1c-0.4-0.1-0.8-0.3-1.3-0.4c-0.7-0.3-1.5-0.5-2.2-0.8c-0.3-0.1-0.5-0.2-0.8-0.3   c-0.4-0.1-0.7-0.5-0.7-1c0-0.4,0.1-0.8,0.5-1c0.2-0.1,0.4-0.3,0.7-0.4c1-0.5,2-1.1,3.1-1.6c0.9-0.5,1.8-0.9,2.7-1.4   c1.2-0.6,2.4-1.3,3.6-1.9c1.2-0.6,2.3-1.2,3.5-1.8c1.2-0.6,2.3-1.2,3.5-1.8c1.1-0.6,2.1-1.1,3.2-1.6c1-0.5,2-1,2.9-1.5   c1.1-0.6,2.2-1.1,3.3-1.7c0.9-0.5,1.9-1,2.8-1.5c0.9-0.5,1.9-1,2.8-1.5c0.8-0.4,1.7-0.9,2.5-1.3c0.3-0.1,0.5-0.3,0.8-0.4   c0.6-0.1,1.2,0.3,1.3,0.8c0,0.1,0,0.2,0,0.2c0,0,0,0.1,0,0.1L39.3,346.3z"/>
                <line id="Line_109" class="st5" fill="none" stroke="#72DFC5" stroke-width="2" stroke-miterlimit="10" x1="15.8" y1="369" x2="39.3" y2="344.5"/>
            </g>
        </symbol>
        <symbol id="datasheet">
            <g id="Group_195">
                <path id="Path_1114" class="st6" fill="none" stroke="#5D6EDB" stroke-width="2" stroke-miterlimit="10" d="M2.6,119.6l0.5-1.1c0.6-0.9,1.5-1.5,2.5-1.7c0.3-0.1,0.6-0.1,0.9-0.1c4.3,0,8.6,0,12.9,0   c0.4,0,0.7,0.1,1,0.4c0.6,0.6,1.2,1.2,1.8,1.8c0.6,0.6,1.1,1.2,1.7,1.7c0.7,0.7,1.4,1.4,2.1,2.1l2.1,2.1c0.6,0.6,1.2,1.2,1.9,1.8   c0.3,0.3,0.5,0.7,0.5,1.1c0,4.8,0,9.6,0,14.3c0,0.2,0,0.4,0,0.6l0,2.6v0c0,0.3,0,0.5,0,0.8c0,1.4,0,2.8,0,4.2   c0,0.7-0.1,1.3-0.3,1.9c-0.3,0.8-0.8,1.5-1.5,1.9c-0.7,0.5-1.6,0.7-2.5,0.7c-6,0-12.1,0-18.1,0c-0.5,0-0.9,0-1.4,0   c-1.4,0-2.8-0.7-3.6-1.9c-0.5-0.7-0.7-1.5-0.7-2.3c0-9.8,0-19.6,0-29.5c0-0.1,0-0.2,0-0.4c0,0,0,0,0,0L2.6,119.6z"/>
                <path id="Path_1115" class="st6" fill="none" stroke="#5D6EDB" stroke-width="2" stroke-miterlimit="10" d="M19.4,117.5c0,1.8,0,5.5,0,7.2c0,1.2,0.8,2.3,2,2.7l0.8,0.3c0.1,0,0.2,0,0.3,0   c2.4,0,4.9,0,7.3,0c0.1,0,0.2,0,0.3,0"/>
                <line id="Line_114" class="st7" fill="none" stroke="#5D6EDB" stroke-width="2" stroke-linecap="round" stroke-miterlimit="10" x1="5.5" y1="135.1" x2="10.8" y2="135.1"/>
                <line id="Line_115" class="st7" fill="none" stroke="#5D6EDB" stroke-width="2" stroke-linecap="round" stroke-miterlimit="10" x1="15.1" y1="135.1" x2="25.1" y2="135.1"/>
                <line id="Line_116" class="st7" fill="none" stroke="#5D6EDB" stroke-width="2" stroke-linecap="round" stroke-miterlimit="10" x1="5.5" y1="140.9" x2="10.8" y2="140.9"/>
                <line id="Line_117" class="st7" fill="none" stroke="#5D6EDB" stroke-width="2" stroke-linecap="round" stroke-miterlimit="10" x1="5.5" y1="147.5" x2="10.8" y2="147.5"/>
                <line id="Line_118" class="st7" fill="none" stroke="#5D6EDB" stroke-width="2" stroke-linecap="round" stroke-miterlimit="10" x1="30.1" y1="144.7" x2="26.4" y2="148.4"/>
                <line id="Line_119" class="st7" fill="none" stroke="#5D6EDB" stroke-width="2" stroke-linecap="round" stroke-miterlimit="10" x1="30.2" y1="144.7" x2="33.9" y2="148.4"/>
                <line id="Line_120" class="st7" fill="none" stroke="#5D6EDB" stroke-width="2" stroke-linecap="round" stroke-miterlimit="10" x1="15.1" y1="140.9" x2="25.1" y2="140.9"/>
            </g>
        </symbol>
        <symbol id="mobile">
            <g id="Group_207" transform="translate(0 0)">
                <path id="Path_1116" class="st8" fill="none" stroke="#029111" stroke-width="2" stroke-miterlimit="10" d="M2.3,814.2c0-4.5,0-8.9,0-13.4c0-0.6,0-1.1,0-1.7c0-0.9,0.4-1.8,1-2.6c0.5-0.6,1.1-1,1.8-1.2   c0.3-0.1,0.7-0.1,1-0.2c1.7,0,3.5-0.1,5.2-0.1c2.4,0,4.8,0,7.2,0c0.8,0,1.6,0,2.5,0.1c0.8,0,1.5,0.2,2.2,0.6   c0.9,0.6,1.5,1.5,1.7,2.5c0.1,0.5,0.1,1.1,0.1,1.6c0,9.6,0,19.1,0,28.7c0,0.7-0.1,1.4-0.3,2c-0.4,1.2-1.5,2.1-2.8,2.3   c-0.5,0.1-1,0.1-1.5,0.1c-4.8,0-9.7,0-14.5,0c-0.7,0-1.4-0.3-1.9-0.7c-0.8-0.6-1.4-1.4-1.6-2.4c-0.1-0.2-0.1-0.4-0.1-0.6   C2.3,824.4,2.3,819.3,2.3,814.2L2.3,814.2z"/>
                <path id="Path_1117" class="st8" fill="none" stroke="#029111" stroke-width="2" stroke-miterlimit="10" d="M9.2,795.3c0,0.3,0,0.6,0,0.9c0,0.3,0.3,0.6,0.6,0.6c0,0,0,0,0,0c0.1,0,0.3,0,0.4,0   c2.1,0,4.2,0,6.3,0c0.3,0,0.6,0,1,0c0.2,0,0.5-0.1,0.5-0.4c0.1-0.4,0.1-0.8,0.1-1.2L9.2,795.3z"/>
                <line id="Line_125" class="st9" fill="none" stroke="#029111" stroke-width="2" stroke-linecap="round" stroke-miterlimit="10" x1="10.3" y1="829.7" x2="17.3" y2="829.7"/>
            </g>
        </symbol>
        <symbol id="linux">
            <g id="Group_209" transform="translate(0 0)">
                <path id="Path_1118" class="st10" fill="#D1A700" stroke="#D1A700" d="M19.4,681.5c1.1-0.1,2.2,0.2,3.2,0.8c1,0.7,1.7,1.6,2.1,2.7c0.4,0.9,0.6,1.9,0.8,2.9   c0,0.3,0.1,0.6,0.1,1c0,1,0.1,2,0.1,3c0.2,1.4,0.7,2.8,1.6,4c1.2,1.6,2.3,3.3,3.4,5c0.6,1,1.1,2,1.5,3.1c0.4,1.1,0.5,2.3,0.2,3.5   c-0.1,0.4-0.2,0.9-0.2,1.3c0,0.1,0,0.2,0.1,0.3c0.5,0.6,0.8,1.4,0.8,2.2c0,0.8,0.4,1.5,1.1,1.8c0.3,0.2,0.6,0.3,0.9,0.5   c0.6,0.3,0.9,1,0.6,1.6c-0.1,0.2-0.2,0.3-0.3,0.4c-0.4,0.4-0.9,0.7-1.4,0.9c-1.3,0.8-2.6,1.5-3.8,2.2c-0.5,0.3-0.9,0.7-1.3,1.1   c-0.5,0.5-1.3,0.8-2,0.8c-0.6,0.1-1.1,0-1.6-0.3c-0.4-0.3-0.8-0.7-1-1.2c0-0.1-0.1-0.1-0.2-0.1c-1.1-0.3-2.3-0.4-3.4-0.4   c-0.5,0-0.9-0.1-1.4,0c-0.9,0.1-1.7,0.2-2.6,0.3c-0.5,0.1-1,0.1-1.4,0.2c-0.1,0-0.2,0.1-0.3,0.2c-0.6,0.9-1.7,1.4-2.7,1.2   c-1.2-0.3-2.3-0.6-3.4-1.1c-0.9-0.3-1.8-0.5-2.7-0.8c-0.6-0.1-1.2-0.1-1.9-0.3c-0.7-0.1-1.3-0.4-1.7-0.9c-0.2-0.3-0.3-0.7-0.1-1   c0.2-0.4,0.3-0.9,0.4-1.3c0.1-0.7,0.1-1.5-0.1-2.2c-0.3-0.7,0.1-1.4,0.8-1.7c0.1,0,0.2-0.1,0.3-0.1c0.4-0.1,0.9-0.2,1.3-0.3   c0.8-0.2,1.5-0.8,1.9-1.5c0.2-0.3,0.4-0.6,0.7-0.8c0.1-0.1,0.2-0.2,0.1-0.4c-0.2-0.8-0.1-1.6,0.2-2.3c0.5-1.1,0.9-2.3,1.4-3.5   c0.4-1.2,0.9-2.4,1.6-3.5c0.7-1,1.4-2,2.2-2.9c0.5-0.6,0.8-1.4,0.8-2.2c0-0.6,0.1-1.2,0-1.8c-0.1-1-0.2-2-0.2-3   c0-0.8,0-1.6,0.1-2.4c0-0.7,0.2-1.3,0.4-2c0.3-0.9,0.9-1.6,1.7-2C16.9,681.8,18.1,681.5,19.4,681.5 M14.7,693.8   c0,0.3-0.1,0.6-0.1,0.9c-0.1,0.8-0.4,1.6-0.8,2.3c-0.7,1-1.2,2-1.6,3.2c-0.3,1.1-0.8,2.1-1.3,3.1c-0.2,0.4-0.4,0.9-0.5,1.4   c-0.1,0.5-0.2,1-0.3,1.4c-0.1,0.8-0.1,1.6,0.3,2.3c0.5,0.9,1.2,1.7,2.1,2.3c0.7,0.6,1.4,1.1,2,1.7c0.5,0.4,0.6,1.1,0.3,1.6   c-0.1,0.1-0.1,0.2-0.2,0.2c-0.2,0.2-0.5,0.3-0.7,0.4c0.5,0.6,1.1,1.2,1.6,1.8c0.1,0.1,0.2,0.1,0.3,0.1c1.4,0.1,2.8,0,4.1-0.2   c1.7-0.3,3.2-1.1,4.3-2.4c0.2-0.2,0.4-0.5,0.5-0.8c0.1-1.1,0.1-2.2,0.2-3.3c0-0.7,0.1-1.2,1.1-1.1c0.1,0,0.2,0,0.2,0   c0.3,0,0.4-0.1,0.4-0.4c0-0.4,0.1-0.8,0.1-1.2c0.1-1.1,0.1-2.2-0.1-3.3c-0.3-1.4-0.8-2.8-1.3-4.1c-0.5-1.3-1.1-2.5-1.6-3.8   c-0.4-0.8-0.8-1.6-1.2-2.4c-0.1-0.2-0.2-0.3-0.5-0.3c-0.2,0-0.5,0.1-0.7,0.2c-1.1,0.6-2.1,1.1-3.2,1.7c-0.6,0.3-1.3,0.3-1.8-0.1   C15.8,694.7,15.3,694.2,14.7,693.8 M12.4,719.5c0.3-0.1,0.6-0.2,0.8-0.4c0.2-0.1,0.4-0.3,0.5-0.5c0.3-0.3,0.4-0.8,0.4-1.2   c0-0.6-0.3-1.2-0.7-1.6c-0.4-0.5-0.9-1.1-1.2-1.7c-0.7-1-1.3-2.1-1.9-3.1c-0.4-0.7-0.9-1.3-1.6-1.6c-0.4-0.2-0.6-0.1-0.9,0.2   c-0.2,0.4-0.4,0.8-0.6,1.1c-0.2,0.4-0.6,0.7-1.1,0.8c-0.6,0.1-1.2,0.3-1.8,0.5c-0.3,0.1-0.6,0.4-0.5,0.8c0,0,0,0,0,0.1   c0.1,0.4,0.1,0.7,0.2,1.1c0,0.7-0.1,1.4-0.4,2.1c-0.2,0.6-0.1,0.9,0.5,1.1c0.7,0.2,1.4,0.3,2.1,0.4c0.6,0.1,1.3,0.3,1.9,0.5   s1.2,0.5,1.9,0.7C10.8,719,11.6,719.3,12.4,719.5 M26.7,710c-0.6-0.1-0.7,0-0.7,0.6c0,1.1,0.1,2.2,0,3.3c-0.1,0.9-0.3,1.9-0.5,2.8   c-0.2,0.7,0,1.5,0.4,2.1c0.3,0.5,1,0.7,1.5,0.4c0.6-0.3,1.2-0.6,1.7-1.1c1-0.8,2-1.5,3.1-2.1c0.6-0.4,1.3-0.7,1.9-1.1   c0.2-0.1,0.4-0.4,0.1-0.6c-0.2-0.3-0.5-0.5-0.8-0.7c-0.4-0.2-0.8-0.5-1.1-0.9c-0.3-0.5-0.5-1.1-0.5-1.7c-0.1-0.3-0.1-0.6-0.2-0.9   l-0.1,0c0,0.1-0.1,0.1-0.1,0.2c-0.2,0.3-0.3,0.5-0.5,0.8c-0.6,0.6-1.3,0.9-2.1,1.1c-0.9,0.2-1.7-0.3-2-1.1   C26.8,710.9,26.8,710.5,26.7,710 M15,692.5c0.4,0.7,1,1.2,1.7,1.7c0.5,0.4,1.2,0.5,1.7,0.1c0.8-0.5,1.6-0.9,2.5-1.4   c0.3-0.2,0.7-0.3,0.7-0.7c0-0.4-0.4-0.6-0.8-0.7c-0.8-0.3-1.7-0.6-2.5-0.9c-0.2-0.1-0.5-0.1-0.8,0c-0.3,0.2-0.6,0.4-0.9,0.6   C16,691.7,15.5,692.1,15,692.5 M19.7,690.3c0-0.1,0-0.2,0-0.2c-0.2-0.5-0.1-1,0.3-1.4c0.3-0.3,0.7-0.4,1-0.2   c0.5,0.3,0.7,0.9,0.6,1.4c-0.1,0.4-0.3,0.7-0.5,1.1c0.3,0.1,0.8,0,0.9-0.3c0.4-0.6,0.5-1.2,0.5-1.9c0-0.5-0.2-1.1-0.6-1.5   c-0.4-0.4-1-0.6-1.6-0.5c-0.3,0-0.5,0.1-0.8,0.3c-0.7,0.6-1,1.4-0.8,2.3c0,0.3,0,0.6,0.3,0.8C19.2,690.1,19.4,690.2,19.7,690.3    M16.4,690.1c0.3,0,0.7-0.2,0.8-0.5c0.1-0.8-0.1-1.5-0.5-2.2c-0.4-0.5-1.2-0.7-1.8-0.2c-0.1,0.1-0.2,0.1-0.2,0.2   c-0.4,0.6-0.6,1.3-0.5,1.9c0,0.6,0.3,1.2,0.7,1.7c0.3,0.3,0.7,0.2,0.8-0.2c-0.7-0.3-1-1-0.9-1.7c0.1-0.7,0.5-0.9,1-0.6   c0.2,0.2,0.4,0.4,0.5,0.7C16.4,689.5,16.4,689.8,16.4,690.1"/>
                <path id="Path_1119" class="st11" fill="#D1A700" stroke="#D1A700" stroke-miterlimit="10" d="M19.4,681.5c1.1-0.1,2.2,0.2,3.2,0.8c1,0.7,1.7,1.6,2.1,2.7c0.4,0.9,0.6,1.9,0.8,2.9   c0,0.3,0.1,0.6,0.1,1c0,1,0.1,2,0.1,3c0.2,1.4,0.7,2.8,1.6,4c1.2,1.6,2.3,3.3,3.4,5c0.6,1,1.1,2,1.5,3.1c0.4,1.1,0.5,2.3,0.2,3.5   c-0.1,0.4-0.2,0.9-0.2,1.3c0,0.1,0,0.2,0.1,0.3c0.5,0.6,0.8,1.4,0.8,2.2c0,0.8,0.4,1.5,1.1,1.8c0.3,0.2,0.6,0.3,0.9,0.5   c0.6,0.3,0.9,1,0.6,1.6c-0.1,0.2-0.2,0.3-0.3,0.4c-0.4,0.4-0.9,0.7-1.4,0.9c-1.3,0.8-2.6,1.5-3.8,2.2c-0.5,0.3-0.9,0.7-1.3,1.1   c-0.5,0.5-1.3,0.8-2,0.8c-0.6,0.1-1.1,0-1.6-0.3c-0.4-0.3-0.8-0.7-1-1.2c0-0.1-0.1-0.1-0.2-0.1c-1.1-0.3-2.3-0.4-3.4-0.4   c-0.5,0-0.9-0.1-1.4,0c-0.9,0.1-1.7,0.2-2.6,0.3c-0.5,0.1-1,0.1-1.4,0.2c-0.1,0-0.2,0.1-0.3,0.2c-0.6,0.9-1.7,1.4-2.7,1.2   c-1.2-0.3-2.3-0.6-3.4-1.1c-0.9-0.3-1.8-0.5-2.7-0.8c-0.6-0.1-1.2-0.1-1.9-0.3c-0.7-0.1-1.3-0.4-1.7-0.9c-0.2-0.3-0.3-0.7-0.1-1   c0.2-0.4,0.3-0.9,0.4-1.3c0.1-0.7,0.1-1.5-0.1-2.2c-0.3-0.7,0.1-1.4,0.8-1.7c0.1,0,0.2-0.1,0.3-0.1c0.4-0.1,0.9-0.2,1.3-0.3   c0.8-0.2,1.5-0.8,1.9-1.5c0.2-0.3,0.4-0.6,0.7-0.8c0.1-0.1,0.2-0.2,0.1-0.4c-0.2-0.8-0.1-1.6,0.2-2.3c0.5-1.1,0.9-2.3,1.4-3.5   c0.4-1.2,0.9-2.4,1.6-3.5c0.7-1,1.4-2,2.2-2.9c0.5-0.6,0.8-1.4,0.8-2.2c0-0.6,0.1-1.2,0-1.8c-0.1-1-0.2-2-0.2-3   c0-0.8,0-1.6,0.1-2.4c0-0.7,0.2-1.3,0.4-2c0.3-0.9,0.9-1.6,1.7-2C16.9,681.8,18.1,681.5,19.4,681.5z M14.7,693.8   c0,0.3-0.1,0.6-0.1,0.9c-0.1,0.8-0.4,1.6-0.8,2.3c-0.7,1-1.2,2-1.6,3.2c-0.3,1.1-0.8,2.1-1.3,3.1c-0.2,0.4-0.4,0.9-0.5,1.4   c-0.1,0.5-0.2,1-0.3,1.4c-0.1,0.8-0.1,1.6,0.3,2.3c0.5,0.9,1.2,1.7,2.1,2.3c0.7,0.6,1.4,1.1,2,1.7c0.5,0.4,0.6,1.1,0.3,1.6   c-0.1,0.1-0.1,0.2-0.2,0.2c-0.2,0.2-0.5,0.3-0.7,0.4c0.5,0.6,1.1,1.2,1.6,1.8c0.1,0.1,0.2,0.1,0.3,0.1c1.4,0.1,2.8,0,4.1-0.2   c1.7-0.3,3.2-1.1,4.3-2.4c0.2-0.2,0.4-0.5,0.5-0.8c0.1-1.1,0.1-2.2,0.2-3.3c0-0.7,0.1-1.2,1.1-1.1c0.1,0,0.2,0,0.2,0   c0.3,0,0.4-0.1,0.4-0.4c0-0.4,0.1-0.8,0.1-1.2c0.1-1.1,0.1-2.2-0.1-3.3c-0.3-1.4-0.8-2.8-1.3-4.1c-0.5-1.3-1.1-2.5-1.6-3.8   c-0.4-0.8-0.8-1.6-1.2-2.4c-0.1-0.2-0.2-0.3-0.5-0.3c-0.2,0-0.5,0.1-0.7,0.2c-1.1,0.6-2.1,1.1-3.2,1.7c-0.6,0.3-1.3,0.3-1.8-0.1   C15.8,694.7,15.3,694.2,14.7,693.8z M12.4,719.5c0.3-0.1,0.6-0.2,0.8-0.4c0.2-0.1,0.4-0.3,0.5-0.5c0.3-0.3,0.4-0.8,0.4-1.2   c0-0.6-0.3-1.2-0.7-1.6c-0.4-0.5-0.9-1.1-1.2-1.7c-0.7-1-1.3-2.1-1.9-3.1c-0.4-0.7-0.9-1.3-1.6-1.6c-0.4-0.2-0.6-0.1-0.9,0.2   c-0.2,0.4-0.4,0.8-0.6,1.1c-0.2,0.4-0.6,0.7-1.1,0.8c-0.6,0.1-1.2,0.3-1.8,0.5c-0.3,0.1-0.6,0.4-0.5,0.8c0,0,0,0,0,0.1   c0.1,0.4,0.1,0.7,0.2,1.1c0,0.7-0.1,1.4-0.4,2.1c-0.2,0.6-0.1,0.9,0.5,1.1c0.7,0.2,1.4,0.3,2.1,0.4c0.6,0.1,1.3,0.3,1.9,0.5   s1.2,0.5,1.9,0.7C10.8,719,11.6,719.3,12.4,719.5z M26.7,710c-0.6-0.1-0.7,0-0.7,0.6c0,1.1,0.1,2.2,0,3.3c-0.1,0.9-0.3,1.9-0.5,2.8   c-0.2,0.7,0,1.5,0.4,2.1c0.3,0.5,1,0.7,1.5,0.4c0.6-0.3,1.2-0.6,1.7-1.1c1-0.8,2-1.5,3.1-2.1c0.6-0.4,1.3-0.7,1.9-1.1   c0.2-0.1,0.4-0.4,0.1-0.6c-0.2-0.3-0.5-0.5-0.8-0.7c-0.4-0.2-0.8-0.5-1.1-0.9c-0.3-0.5-0.5-1.1-0.5-1.7c-0.1-0.3-0.1-0.6-0.2-0.9   l-0.1,0c0,0.1-0.1,0.1-0.1,0.2c-0.2,0.3-0.3,0.5-0.5,0.8c-0.6,0.6-1.3,0.9-2.1,1.1c-0.9,0.2-1.7-0.3-2-1.1   C26.8,710.9,26.8,710.5,26.7,710L26.7,710z M15,692.5c0.4,0.7,1,1.2,1.7,1.7c0.5,0.4,1.2,0.5,1.7,0.1c0.8-0.5,1.6-0.9,2.5-1.4   c0.3-0.2,0.7-0.3,0.7-0.7c0-0.4-0.4-0.6-0.8-0.7c-0.8-0.3-1.7-0.6-2.5-0.9c-0.2-0.1-0.5-0.1-0.8,0c-0.3,0.2-0.6,0.4-0.9,0.6   C16,691.7,15.5,692.1,15,692.5z M19.7,690.3c0-0.1,0-0.2,0-0.2c-0.2-0.5-0.1-1,0.3-1.4c0.3-0.3,0.7-0.4,1-0.2   c0.5,0.3,0.7,0.9,0.6,1.4c-0.1,0.4-0.3,0.7-0.5,1.1c0.3,0.1,0.7,0,0.9-0.3c0.4-0.6,0.5-1.2,0.5-1.9c0-0.5-0.2-1.1-0.6-1.5   c-0.4-0.4-1-0.6-1.6-0.5c-0.3,0-0.5,0.1-0.8,0.3c-0.7,0.6-1,1.4-0.8,2.3c0,0.3,0,0.6,0.3,0.8C19.2,690.1,19.4,690.2,19.7,690.3z    M16.4,690.1c0.3,0,0.7-0.2,0.8-0.5c0.1-0.8-0.1-1.5-0.5-2.2c-0.4-0.5-1.2-0.7-1.8-0.2c-0.1,0.1-0.2,0.1-0.2,0.2   c-0.4,0.6-0.6,1.3-0.5,1.9c0,0.6,0.3,1.2,0.7,1.7c0.3,0.3,0.7,0.2,0.8-0.2c-0.7-0.3-1-1-0.9-1.7c0.1-0.7,0.5-0.9,1-0.6   c0.2,0.2,0.4,0.4,0.5,0.7C16.4,689.5,16.4,689.8,16.4,690.1z"/>
            </g>
        </symbol>
        <symbol id="mac">
            <g id="Group_211" transform="translate(0 0)">
                <path id="Path_1120" class="st12" fill="none" stroke="#9F3C5A" stroke-width="2" stroke-miterlimit="10" d="M12.3,579c1.5,0.1,2.9,0.4,4.2,1c1.2,0.5,2.5,0.5,3.7,0c2.4-1.1,5.2-1.4,7.8-0.7   c1.8,0.5,3.4,1.7,4.4,3.2c0.2,0.2,0.2,0.6,0,0.9c0,0-0.1,0.1-0.1,0.1c-0.5,0.4-1,0.8-1.4,1.2c-2.8,2.5-3.1,6.9-0.6,9.7   c0.7,0.9,1.7,1.7,2.7,2.2c0.5,0.1,0.8,0.6,0.6,1.1c0,0.1-0.1,0.2-0.1,0.3c-0.5,1.5-1.3,3-2.1,4.4c-0.9,1.2-1.9,2.4-3,3.5   c-1.3,1.4-3.3,1.9-5.1,1.3c-0.5-0.2-1.1-0.3-1.6-0.5c-1.9-0.8-4-0.8-5.9,0c-1.2,0.6-2.5,0.9-3.9,0.8c-1.6-0.2-3.1-1.1-4-2.4   c-2.9-3.6-4.7-7.9-5.5-12.4c-0.6-4.2,0.3-8.1,3.5-11.1C7.7,579.8,10,579,12.3,579z"/>
                <path id="Path_1121" class="st12" fill="none" stroke="#9F3C5A" stroke-width="2" stroke-miterlimit="10" d="M17.4,576.6c0.2-3.1,2.1-5.8,5-7c0.7-0.3,1.5-0.6,2.3-0.8c0.9-0.2,1.1,0,1.2,0.8   c0.2,3.1-2.8,8.3-7.5,8.5C17.6,578.2,17.4,578,17.4,576.6z"/>
            </g>
        </symbol>
    </defs>
</svg>